<svg xmlns="http://www.w3.org/2000/svg" viewBox="0 0 64 64">
  <rect width="64" height="64" rx="13" fill="#06080d"/>
  <rect x="12" y="24" width="15" height="30" rx="1" fill="#0e1420" stroke="#1b2436" stroke-width="1"/>
  <rect x="33" y="12" width="19" height="42" rx="1" fill="#0e1420" stroke="#1b2436" stroke-width="1"/>
  <g fill="#59f7ff">
    <rect x="16" y="29" width="3" height="3"/><rect x="22" y="35" width="3" height="3"/>
    <rect x="16" y="41" width="3" height="3"/><rect x="38" y="17" width="3" height="3"/>
    <rect x="45" y="23" width="3" height="3"/><rect x="38" y="35" width="3" height="3"/>
    <rect x="45" y="41" width="3" height="3"/>
  </g>
  <g fill="#ffb454">
    <rect x="22" y="47" width="3" height="3"/><rect x="45" y="29" width="3" height="3"/>
    <rect x="38" y="47" width="3" height="3"/>
  </g>
  <path d="M4 22 Q14 14 24 19 T44 12 T62 8" fill="none" stroke="#59f7ff" stroke-width="2" stroke-linecap="round" opacity="0.85"/>
</svg>
